<?xml version="1.0" encoding="utf-8"?>
<!-- Generator: Adobe Illustrator 22.0.1, SVG Export Plug-In . SVG Version: 6.00 Build 0)  -->
<svg version="1.1" id="Layer_1" xmlns="http://www.w3.org/2000/svg" xmlns:xlink="http://www.w3.org/1999/xlink" x="0px" y="0px"
	 viewBox="0 0 612 792" style="enable-background:new 0 0 612 792;" xml:space="preserve">
<style type="text/css">
	.st0{fill:#192C49;}
	.st1{fill:#FFFFFF;}
	.st2{fill:#C69215;}
</style>
<path class="st0" d="M306.6,545.2c-22.1,0-44.3,0-66.4,0c-13.2,0-23.8-5.5-31.7-16c-3.2-4.2-5-9-6.2-14.1c-0.8-3.2-0.9-6.5-1.2-9.8
	c-0.7-7.1-1.8-14.2-3.3-21.2c-2.7-12.3-6.7-24.3-11.8-35.8c-3.8-8.6-8.4-16.7-13.4-24.7c-3.4-5.5-7.4-10.5-11.1-15.8
	c-3.4-5-6.6-10.2-9.5-15.5c-4.2-7.7-7.8-15.7-10.8-24c-2.8-7.7-5-15.6-6.7-23.6c-1.2-5.8-2.2-11.6-2.8-17.4c-0.4-3.6-0.6-7.3-0.8-11
	c-0.3-4.8-0.2-9.7-0.1-14.5c0.2-5.8,0.6-11.5,1.4-17.3c1.2-8.9,3.1-17.7,5.6-26.3c2.4-8.4,5.6-16.6,9.3-24.6
	c3.9-8.3,8.4-16.3,13.5-23.9c4.6-6.8,9.7-13.4,15.2-19.5c8.8-9.6,18.3-18.3,28.9-25.8c13.5-9.5,28-17.1,43.7-22.6
	c9.2-3.3,18.7-5.6,28.4-7.3c5.2-0.9,10.5-1.5,15.8-2c6.9-0.6,13.7-0.7,20.6-0.5c9,0.3,17.9,1.2,26.7,3c8,1.6,15.9,3.5,23.6,6.2
	c13.7,4.7,26.7,10.9,38.8,18.8c6.5,4.2,12.7,8.7,18.6,13.8c5,4.3,9.7,8.9,14.3,13.7c5.6,5.8,10.7,12,15.3,18.6
	c6.1,8.6,11.4,17.7,15.9,27.3c5,10.8,9,21.9,11.7,33.5c1.5,6.3,2.7,12.6,3.5,18.9c0.4,3.5,0.7,7.1,1,10.6c0.4,6.5,0.4,13.1,0.2,19.6
	c-0.5,16.6-3.7,32.8-9,48.5c-4.6,13.8-10.9,26.8-18.8,39c-3.5,5.4-7.3,10.5-11,15.7c-3.8,5.5-7.3,11.3-10.5,17.2
	c-4.5,8.3-8.3,16.9-11.4,25.8c-2.9,8.3-5.3,16.8-7,25.5c-0.9,4.5-1.6,9-2.1,13.5c-0.4,3.5-0.5,7.1-1,10.6c-1.2,7.5-4,14.4-9.2,20.2
	c-6.5,7.2-14.5,11.5-24.2,12.8c-1.8,0.2-3.5,0.3-5.3,0.3C350.9,545.2,328.8,545.2,306.6,545.2z M293.1,513.1c0.6,0,1.2,0.1,1.7,0.1
	c6.6,0,13.2,0,19.7,0c1.9,0,3.8,0,5.7-0.1c0.4,0,0.7,0.1,1.1,0.1c16,0,32,0,48,0c1,0,1.9,0,2.9-0.1c2.9-0.4,5.2-1.7,6.5-4.5
	c0.6-1.3,0.9-2.6,1-4c0.3-2.6,0.4-5.3,0.8-7.9c1.1-8.2,2.6-16.4,4.5-24.4c3.5-14.7,8.6-28.8,15.1-42.5c5.4-11.3,11.7-22,19-32.1
	c3.5-4.9,7-9.6,10.1-14.7c6.8-11.3,12.1-23.2,15.7-35.9c1.9-6.6,3.2-13.2,4.2-19.9c0.9-6.2,1.2-12.5,1.5-18.7c0-1.3-0.1-2.7-0.2-4
	c-0.1-3.2-0.4-6.5-0.7-9.7c-0.6-6.2-1.5-12.3-2.9-18.4c-2.5-10.9-6.2-21.3-11.1-31.3c-3.7-7.6-8-14.8-13-21.6
	c-4.4-6-9.2-11.7-14.4-17c-2.6-2.6-5.3-5-8.1-7.4c-14-11.9-29.6-20.9-47-26.8c-8.7-3-17.5-5.2-26.6-6.4c-4.7-0.6-9.5-1.1-14.2-1.4
	c-4.2-0.2-8.4-0.2-12.6,0.1c-3.5,0.3-7.1,0.6-10.6,1c-6.7,0.8-13.2,2.1-19.7,3.9c-9,2.5-17.7,5.7-26.1,9.8
	c-7.5,3.8-14.8,8.1-21.5,13.1c-5.9,4.3-11.4,9-16.6,14.1c-3,2.9-5.8,6.1-8.4,9.4c-11.3,13.5-19.9,28.6-25.7,45.3
	c-3.1,8.8-5.3,17.8-6.5,27.1c-0.9,6.5-1.5,13-1.5,19.5c0,5.2,0.4,10.3,0.9,15.4c0.5,4.1,1,8.2,1.8,12.3c1.4,7.2,3.4,14.2,5.9,21.2
	c3.8,10.6,8.9,20.6,14.9,30.1c2.9,4.6,6.5,8.8,9.5,13.4c4.9,7.3,9.6,14.7,13.6,22.5c4.8,9.3,9,18.8,12.5,28.6
	c6.1,17.5,9.9,35.5,11.5,53.9c0.4,4.3,2.6,7.1,6.9,7.9c1.3,0.2,2.7,0.2,4,0.2c15.6,0,31.3,0,46.9,0
	C291.9,513.2,292.5,513.1,293.1,513.1z"/>
<path class="st0" d="M306.7,555.9c26.6,0,53.2,0.1,79.8,0c7,0,14.4,4.6,15.9,13.2c1.7,9.9-5.5,18.6-15.2,18.8c-0.3,0-0.6,0-1,0
	c-53.1,0-106.1,0-159.2,0c-4.2,0-8-1.1-11.1-4c-4.8-4.6-6.5-10.2-4.6-16.6c1.8-6.3,6.2-10,12.7-11.2c0.9-0.2,1.9-0.1,2.9-0.1
	C253.5,555.9,280.1,555.9,306.7,555.9z"/>
<path class="st0" d="M306.7,598.5c16.2,0,32.3,0,48.5,0c8.1,0,15.2,6.5,15.8,14.5c0.7,9.1-5.9,16.2-13.5,17.3
	c-1,0.1-1.9,0.2-2.9,0.2c-31.9,0-63.9,0-95.8,0c-7.3,0-13.4-4.3-15.6-11.1c-3-9,2.6-18.6,11.9-20.6c1.1-0.2,2.1-0.3,3.2-0.3
	C274.3,598.5,290.5,598.5,306.7,598.5z"/>
<path class="st1" d="M293.1,513.1c-0.6,0-1.2,0.1-1.8,0.1c-15.6,0-31.3,0-46.9,0c-1.3,0-2.7,0-4-0.2c-4.2-0.8-6.5-3.6-6.9-7.9
	c-1.6-18.5-5.4-36.4-11.5-53.9c-3.5-9.9-7.7-19.4-12.5-28.6c-4.1-7.8-8.8-15.2-13.6-22.5c-3-4.6-6.6-8.8-9.5-13.4
	c-6-9.5-11.2-19.5-14.9-30.1c-2.5-6.9-4.5-14-5.9-21.2c-0.8-4.1-1.4-8.2-1.8-12.3c-0.6-5.1-1-10.3-0.9-15.4c0.1-6.5,0.7-13,1.5-19.5
	c1.2-9.3,3.5-18.3,6.5-27.1c5.8-16.7,14.4-31.7,25.7-45.3c2.7-3.2,5.5-6.4,8.4-9.4c5.2-5.1,10.8-9.8,16.6-14.1
	c6.8-5,14-9.3,21.5-13.1c8.4-4.2,17.1-7.4,26.1-9.8c6.5-1.8,13-3.1,19.7-3.9c3.5-0.4,7.1-0.7,10.6-1c4.2-0.3,8.4-0.4,12.6-0.1
	c4.8,0.3,9.5,0.8,14.2,1.4c9.1,1.2,17.9,3.4,26.6,6.4c17.4,5.9,33,14.9,47,26.8c2.8,2.4,5.6,4.8,8.1,7.4c5.2,5.3,10,11,14.4,17
	c5,6.8,9.3,14,13,21.6c4.9,10,8.6,20.5,11.1,31.3c1.4,6.1,2.3,12.2,2.9,18.4c0.3,3.2,0.6,6.5,0.7,9.7c0,1.3,0.2,2.6,0.2,4
	c-0.2,6.3-0.6,12.5-1.5,18.7c-0.9,6.7-2.3,13.4-4.2,19.9c-3.6,12.7-8.8,24.6-15.7,35.9c-3.1,5.1-6.7,9.9-10.1,14.7
	c-7.2,10.2-13.6,20.9-19,32.1c-6.5,13.6-11.6,27.8-15.1,42.5c-1.9,8.1-3.4,16.2-4.5,24.4c-0.3,2.6-0.5,5.3-0.8,7.9
	c-0.1,1.4-0.4,2.7-1,4c-1.3,2.7-3.6,4.1-6.5,4.5c-0.9,0.1-1.9,0.1-2.9,0.1c-16,0-32,0-48,0c-0.4,0-0.7,0-1.1-0.1
	c0-46,0-91.9,0-137.9c0-0.2,0-0.4,0-0.6c0-1.1,0-1.1,1.1-1c0.3,0,0.6,0.1,1,0.1c4.1,0.7,8.3,1.6,12.3,2.9c5.3,1.7,10.4,3.8,14.9,7.1
	c5.2,3.8,10.8,4.6,16.8,2.4c7.9-2.9,11.4-11,8.4-18.2c-3.3-8-4.6-16.5-4.7-25.1c0-3.5,0.3-7,0.8-10.5c0.8-5.7,2.3-11.1,4.5-16.4
	c2.1-4.9,5-9.3,8.6-13.2c4.3-4.5,3.9-11.4-0.6-15.6c-5.2-4.8-13.6-4.6-18.7,0.6c-3.1,3.2-5.9,6.7-8.3,10.5
	c-3.6,5.7-6.2,11.9-8.1,18.3c-1.8,6.1-2.9,12.3-3.4,18.6c-0.2,3-0.2,6.1-0.2,9.1c0,2,0.1,3.9,0.2,5.9c0.1,1.7,0.6,3.5,0.4,5.2
	c-0.4,0.1-0.7,0-1-0.1c-2.5-0.7-5-1.5-7.5-2.1c-4.6-1.1-9.2-1.9-13.8-2.5c-2.7-0.4-2.7-0.4-2.7-3c0-30.1,0-60.2,0-90.2
	c0-4.1-1.2-7.8-3.9-10.9c-4.8-5.7-12.6-6.4-18-1.5c-3.6,3.2-5.3,7.4-5.3,12.2c0,30.3,0,60.6,0,90.9c0,0.4,0,0.9,0,1.3
	c0,0.7-0.2,0.9-0.9,1c-2.4,0.4-4.8,0.8-7.2,1.2c-4.5,0.7-9,1.8-13.4,3.1c-1.1,0.3-2.2,0.6-3.4,1c0.2-1.9,0.5-3.6,0.6-5.3
	c0.2-5.7,0.4-11.4-0.2-17.1c-0.7-7.6-2.3-14.9-5-22c-3.3-8.8-7.9-16.7-14.5-23.4c-4.1-4.2-10.1-5.3-15.5-2.9
	c-4.4,2-7.1,6.2-6.9,10.8c0.1,3,1.4,5.4,3.4,7.5c5.5,5.8,8.8,12.8,10.9,20.3c1.3,4.6,2,9.3,2.4,14.1c0.4,4.4,0.2,8.8-0.3,13.2
	c-0.7,6.2-2.3,12.1-4.5,17.9c-1.7,4.3-0.9,8.4,1.8,12.1c3.4,4.6,8.2,6.4,13.6,6.4c3.5,0,6.8-1.2,9.7-3.3c3.7-2.8,7.9-4.8,12.3-6.4
	c5-1.8,10.1-3,15.3-3.9c1.7-0.3,1.8-0.2,1.8,1.6C293.1,421.2,293.1,467.1,293.1,513.1z"/>
<path class="st2" d="M293.1,513.1c0-46,0-91.9,0-137.9c0-1.8-0.1-1.8-1.8-1.6c-5.2,0.9-10.3,2.1-15.3,3.9c-4.4,1.6-8.5,3.6-12.3,6.4
	c-2.9,2.2-6.2,3.3-9.7,3.3c-5.5,0-10.3-1.8-13.6-6.4c-2.7-3.7-3.5-7.8-1.8-12.1c2.2-5.8,3.8-11.7,4.5-17.9c0.5-4.4,0.6-8.8,0.3-13.2
	c-0.4-4.8-1.1-9.5-2.4-14.1c-2.1-7.6-5.4-14.6-10.9-20.3c-2-2.1-3.3-4.6-3.4-7.5c-0.2-4.6,2.6-8.8,6.9-10.8
	c5.4-2.4,11.3-1.3,15.5,2.9c6.6,6.7,11.3,14.7,14.5,23.4c2.6,7.1,4.3,14.5,5,22c0.6,5.7,0.4,11.4,0.2,17.1c-0.1,1.7-0.4,3.4-0.6,5.3
	c1.2-0.4,2.3-0.7,3.4-1c4.4-1.4,8.8-2.4,13.4-3.1c2.4-0.4,4.8-0.8,7.2-1.2c0.7-0.1,0.9-0.4,0.9-1c0-0.4,0-0.9,0-1.3
	c0-30.3,0-60.6,0-90.9c0-4.8,1.7-9,5.3-12.2c5.4-4.9,13.3-4.2,18,1.5c2.6,3.2,3.9,6.8,3.9,10.9c0,30.1,0,60.2,0,90.2
	c0,2.6,0,2.6,2.7,3c4.6,0.6,9.2,1.4,13.8,2.5c2.5,0.6,5,1.4,7.5,2.1c0.3,0.1,0.6,0.3,1,0.1c0.3-1.7-0.2-3.5-0.4-5.2
	c-0.1-2-0.2-3.9-0.2-5.9c0-3,0-6.1,0.2-9.1c0.5-6.3,1.6-12.6,3.4-18.6c1.9-6.5,4.5-12.6,8.1-18.3c2.4-3.8,5.1-7.3,8.3-10.5
	c5-5.1,13.5-5.4,18.7-0.6c4.5,4.2,5,11.1,0.6,15.6c-3.7,3.9-6.5,8.3-8.6,13.2c-2.3,5.3-3.7,10.7-4.5,16.4c-0.5,3.5-0.8,7-0.8,10.5
	c0.1,8.6,1.3,17.1,4.7,25.1c3,7.2-0.6,15.3-8.4,18.2c-6,2.2-11.6,1.4-16.8-2.4c-4.5-3.3-9.6-5.4-14.9-7.1c-4-1.3-8.1-2.2-12.3-2.9
	c-0.3-0.1-0.6-0.1-1-0.1c-1-0.1-1-0.1-1.1,1c0,0.2,0,0.4,0,0.6c0,46,0,91.9,0,137.9c-1.9,0-3.8,0.1-5.7,0.1c-6.6,0-13.2,0-19.7,0
	C294.2,513.2,293.6,513.1,293.1,513.1z"/>
</svg>
